<?xml version="1.0" standalone="no"?>
<!DOCTYPE svg PUBLIC "-//W3C//DTD SVG 20010904//EN"
 "http://www.w3.org/TR/2001/REC-SVG-20010904/DTD/svg10.dtd">
<svg version="1.0" xmlns="http://www.w3.org/2000/svg"
 width="700.000000pt" height="700.000000pt" viewBox="0 0 700.000000 700.000000"
 preserveAspectRatio="xMidYMid meet">
<metadata>
Created by potrace 1.14, written by Peter Selinger 2001-2017
</metadata>
<g transform="translate(0.000000,700.000000) scale(0.100000,-0.100000)"
fill="#000000" stroke="none">
<path d="M3190 6979 c-350 -33 -668 -109 -980 -231 -167 -66 -570 -276 -655
-342 -11 -8 -74 -56 -140 -104 -574 -426 -1010 -1029 -1228 -1697 -25 -77 -49
-151 -52 -165 -4 -14 -13 -38 -20 -55 -45 -102 -115 -645 -115 -891 0 -119 40
-502 66 -639 80 -416 232 -811 446 -1164 39 -64 86 -142 104 -173 120 -201
446 -554 694 -750 64 -51 59 -39 -27 60 -271 312 -564 815 -682 1171 -38 114
-39 119 -50 351 -22 466 -14 765 29 1115 6 44 10 107 10 140 0 33 5 94 12 136
l12 76 80 7 c116 9 687 28 692 23 2 -2 -5 -29 -16 -61 -23 -69 -65 -268 -81
-390 -7 -55 -9 -160 -6 -270 5 -218 29 -323 108 -483 81 -164 169 -247 329
-308 205 -79 338 -37 480 154 36 47 76 106 89 130 l23 43 -28 -6 c-16 -3 -51
-7 -78 -8 -43 -1 -52 2 -77 30 -56 62 -56 141 -1 179 22 15 47 18 144 18 l117
0 11 43 c26 106 34 250 21 430 -11 159 -50 452 -67 495 -5 15 3 17 62 18 140
3 174 12 174 44 0 10 17 7 63 -11 188 -74 463 -133 718 -154 135 -11 561 10
649 31 25 7 55 11 68 10 21 -1 23 2 16 31 -3 18 -13 37 -20 43 -23 18 -143
206 -193 305 -90 175 -149 409 -157 625 l-5 120 29 -66 c15 -36 50 -98 75
-137 26 -40 47 -76 47 -81 0 -5 7 -15 17 -22 9 -8 69 -77 134 -154 64 -77 143
-166 175 -197 69 -66 195 -168 209 -168 6 0 18 -7 27 -14 16 -12 13 -16 -31
-43 -51 -32 -65 -62 -52 -112 7 -23 14 -27 62 -33 74 -8 139 -20 139 -24 0 -2
-12 -43 -26 -91 -42 -138 -54 -216 -60 -393 -7 -178 9 -364 47 -549 27 -132
43 -177 101 -281 43 -79 59 -97 131 -152 85 -66 163 -111 208 -122 39 -9 180
12 199 29 9 8 22 15 29 15 21 0 93 55 152 117 52 53 129 158 129 175 0 4 -21
10 -47 14 -92 13 -145 76 -124 146 7 21 23 45 36 54 35 23 123 44 186 44 l56
0 24 108 c35 159 32 299 -14 562 -20 113 -40 218 -46 233 -6 16 -11 31 -11 34
0 3 42 3 93 -1 50 -3 231 -13 400 -21 170 -8 313 -17 318 -20 5 -4 9 -25 9
-48 0 -24 9 -105 19 -182 54 -384 60 -987 18 -1624 -15 -222 -25 -406 -23
-408 9 -9 171 267 259 443 202 403 312 797 356 1268 28 293 25 552 -8 731 -6
33 -23 123 -37 200 -122 672 -459 1326 -924 1794 -308 309 -586 514 -948 695
-402 201 -794 311 -1266 355 -262 25 -348 25 -606 0z m1020 -1961 c0 -5 -6 -8
-14 -8 -8 0 -17 14 -21 33 -4 17 -9 41 -11 52 -3 11 7 0 20 -25 14 -25 25 -48
26 -52z m-2475 -204 c51 -136 169 -307 300 -434 54 -52 105 -128 105 -156 0
-2 -88 -4 -195 -4 l-195 0 -11 28 c-6 15 -17 47 -24 72 -7 25 -22 75 -33 112
l-20 67 79 7 c117 10 98 34 -28 34 l-61 0 -7 96 c-7 91 -2 248 12 358 l6 49
23 -80 c12 -44 35 -111 49 -149z m2495 167 c0 -14 145 -226 242 -353 49 -65
152 -189 228 -277 l138 -159 -41 -6 c-23 -3 -59 -8 -79 -11 -21 -3 -60 -13
-87 -24 -48 -18 -51 -18 -89 -1 -33 15 -49 34 -105 131 -78 135 -114 220 -161
378 -67 224 -88 314 -74 323 17 10 28 10 28 -1z m786 -241 c43 -58 98 -126
121 -151 29 -31 41 -52 37 -63 -4 -12 0 -16 15 -16 13 0 60 -34 114 -80 103
-90 227 -178 338 -240 l74 -42 -70 6 c-38 3 -182 10 -320 16 -137 7 -259 14
-271 16 -37 7 -64 115 -98 399 -31 250 -34 277 -25 267 3 -4 41 -54 85 -112z
m-3635 -323 c28 -45 69 -106 90 -135 22 -29 37 -57 34 -62 -3 -6 -35 -10 -70
-10 l-64 0 -26 82 c-43 136 -75 386 -34 265 11 -33 43 -96 70 -140z m-723 36
c17 -27 71 -95 120 -153 l90 -105 -46 -3 c-26 -2 -52 -8 -59 -13 -6 -6 -36
-13 -66 -16 l-54 -5 -7 98 c-3 55 -9 132 -12 172 -4 39 -5 72 -2 72 3 0 19
-21 36 -47z"/>
<path d="M632 2683 c-35 -31 -43 -45 -45 -78 -2 -38 0 -40 28 -43 24 -2 40 6
73 37 39 35 43 43 40 78 -4 55 -39 57 -96 6z"/>
<path d="M752 2593 c-16 -6 -42 -57 -42 -83 0 -30 34 -25 64 11 43 51 31 93
-22 72z"/>
<path d="M6214 2576 c-11 -27 1 -50 29 -57 16 -4 35 -5 42 -3 18 7 26 45 13
61 -14 18 -77 17 -84 -1z"/>
<path d="M6107 2493 c-4 -3 -7 -18 -7 -33 0 -33 47 -70 90 -70 28 0 30 2 30
39 0 30 -6 44 -22 55 -23 16 -79 22 -91 9z"/>
<path d="M3198 920 c-43 -13 -51 -20 -38 -35 16 -19 193 -31 227 -16 37 17 19
29 -63 47 -76 16 -87 16 -126 4z"/>
<path d="M3616 902 c-42 -10 -42 -27 0 -47 29 -14 53 -16 109 -12 83 6 159 33
134 47 -20 12 -206 21 -243 12z"/>
</g>
</svg>
